<?xml version="1.0" standalone="no"?>
<!DOCTYPE svg PUBLIC "-//W3C//DTD SVG 20010904//EN"
 "http://www.w3.org/TR/2001/REC-SVG-20010904/DTD/svg10.dtd">
<svg version="1.0" xmlns="http://www.w3.org/2000/svg"
 width="96.000000pt" height="96.000000pt" viewBox="0 0 96.000000 96.000000"
 preserveAspectRatio="xMidYMid meet">
<metadata>
Created by potrace 1.11, written by Peter Selinger 2001-2013
</metadata>
<g transform="translate(0.000000,96.000000) scale(0.100000,-0.100000)"
fill="#000000" stroke="none">
<path d="M380 950 c0 -9 -13 -21 -30 -27 -16 -6 -34 -22 -39 -35 -6 -15 -23
-29 -48 -37 -58 -19 -112 -73 -120 -120 -20 -115 -19 -243 2 -301 9 -25 17
-50 18 -56 9 -42 148 -197 188 -209 10 -3 28 -28 41 -55 25 -54 56 -68 120
-55 45 10 58 22 58 56 0 31 9 42 63 79 20 14 40 33 43 43 3 9 10 15 15 12 5
-4 9 1 9 9 0 9 7 16 15 16 8 0 19 9 25 20 6 11 8 20 5 20 -3 0 5 15 19 33 32
42 55 124 63 217 6 84 -11 188 -33 197 -8 3 -12 9 -9 13 6 9 -50 69 -66 71
-44 6 -69 21 -69 40 0 32 -62 52 -163 54 -66 0 -90 4 -97 15 -8 13 -10 13 -10
0z"/>
</g>
</svg>
